<?xml version="1.0" encoding="utf-8"?>
<!DOCTYPE svg PUBLIC "-//W3C//DTD SVG 1.1//EN" "http://www.w3.org/Graphics/SVG/1.1/DTD/svg11.dtd">
<svg version="1.1" id="レイヤー_1" xmlns="http://www.w3.org/2000/svg" xmlns:xlink="http://www.w3.org/1999/xlink" x="0px"
	 y="0px" width="300px" height="30px" viewBox="0 0 300 30" enable-background="new 0 0 300 30" xml:space="preserve">
<g>
	<path fill="#FFFFFF" d="M3.7,10.1c1.3,1.3,2.4,2.3,3.3,3.2c0.3,0.4,0.4,0.8,0.1,1.2l-0.2,0.3c-0.3,0.5-0.8,0.5-1.2,0.1
		c-1.3-1.4-2.4-2.6-3.4-3.6c-0.4-0.4-0.4-0.8-0.1-1.2l0.1-0.2C2.6,9.4,3.1,9.5,3.7,10.1z M2.6,27c1-2.2,1.9-4.7,2.7-7.5
		c0.2-0.5,0.5-0.8,1.1-0.5L7,19.2c0.5,0.2,0.7,0.5,0.5,1.1c-0.7,2.7-1.6,5.3-2.8,7.9c-0.3,0.5-0.7,0.6-1.2,0.3L3,28
		C2.6,27.7,2.5,27.4,2.6,27z M5.5,7C4.8,6.1,4,5.3,3.2,4.5C2.8,4.2,2.8,3.8,3.1,3.3l0.2-0.2C3.6,2.6,4,2.6,4.4,3
		c1,0.9,1.9,1.8,2.5,2.6C7.3,6,7.3,6.3,7,6.8L6.8,7C6.4,7.5,6,7.5,5.5,7z M14.3,28.4c-0.7,0-1.6-0.1-2.6-0.2
		c-0.5-0.1-0.8-0.4-0.9-0.9c0-0.5,0.3-0.7,0.9-0.6c0.8,0.1,1.3,0.2,1.8,0.2c0.2,0,0.4-0.2,0.6-1.2c0.2-0.6,0.2-2.3,0.3-4.8h-2.8
		c-0.4,2.9-1.3,5.3-3.1,7.5c-0.4,0.5-0.8,0.4-1.2,0L7,28c-0.3-0.4-0.3-0.8,0-1.2c1.6-2.2,2.3-5.2,2.3-9.5H7.7
		c-0.5,0-0.9-0.3-0.9-0.9c0-0.4,0.3-0.6,0.9-0.6h3.1v-2.3H8.6c-0.5,0-0.9-0.3-0.9-0.9V5.1c0-0.5,0.3-0.9,0.9-0.9h1.8
		c0.1-0.4,0.2-1.1,0.4-2c0.1-0.5,0.4-0.8,0.9-0.8l0.9,0.1c0.5,0.1,0.9,0.4,0.8,0.9c-0.1,0.5-0.2,1.1-0.4,1.8h2.7
		c0.5,0,0.9,0.3,0.9,0.9v5.2c0.7-2.4,1.3-4.8,1.8-7.6c0.1-0.5,0.5-0.8,1-0.7l0.5,0.1c0.5,0.1,0.8,0.4,0.7,1c-0.2,1-0.4,2.1-0.7,3.3
		h5.3c0.5,0,0.9,0.3,0.9,0.9c0,0.5-0.3,0.8-0.9,0.8h-0.1c-0.4,6-1.3,10.5-2.9,13.9c0.9,1.9,2,3.5,3.2,4.8c0.3,0.4,0.4,0.7,0.2,1.2
		l-0.1,0.3c-0.3,0.5-0.8,0.6-1.2,0.2c-1.5-1.5-2.5-2.9-3.3-4.2c-0.9,1.3-2.2,2.8-3.9,4.2c-0.5,0.4-0.9,0.3-1.2-0.2l-0.1-0.2
		C15.5,28.2,15,28.4,14.3,28.4z M10.2,8.3h3.9V5.8h-3.9V8.3z M10.2,9.6v2.7h3.9V9.6H10.2z M16.9,20.4c0,2.7-0.1,4.5-0.4,5.8
		c1.2-1.2,2.3-2.7,3.3-4.5c-1-2.4-1.6-5.2-2-8.5c-0.1,0.4-0.3,0.7-0.5,1.1c-0.2,0.6-0.7,0.7-1.2,0.2l-0.9-1h-1.8v2.3h3.1
		c0.5,0,0.9,0.3,0.9,0.9c0,0.4-0.3,0.6-0.9,0.6h-4.7c0,0.5,0,1.2,0,2.3h4.3C16.6,19.5,16.9,19.8,16.9,20.4z M20,11.4
		c0.3,2.8,0.6,5.2,1.2,7.2C22,16,22.6,12.4,22.9,8h-3.4c-0.2,0.6-0.4,1.4-0.7,2.4l0.2,0C19.5,10.2,19.9,10.6,20,11.4z"/>
	<path fill="#FFFFFF" d="M27.8,12.7L27.8,12.7c0-0.6,0.3-0.9,0.9-0.9h6.1c0.4-0.9,0.8-2.1,1.3-3.7c0.2-0.5,0.5-0.8,1-0.7l1,0.2
		c0.6,0.1,0.8,0.5,0.7,1c-0.3,1.1-0.7,2.1-1.1,3.2h12c0.5,0,0.9,0.3,0.9,0.9v0.1c0,0.5-0.3,0.9-0.9,0.9h-3c-0.9,3.6-2.3,6.5-4.3,8.8
		c2.1,1.2,4.5,2.6,7,4.4c0.5,0.3,0.5,0.7,0.2,1.2l-0.3,0.5c-0.3,0.5-0.7,0.6-1.2,0.2c-3-2.3-5.5-3.8-7.3-4.9
		c-2.4,2.1-6.2,3.7-11.1,4.7c-0.5,0.1-0.9-0.1-1-0.7l-0.1-0.2c-0.1-0.5,0.1-0.9,0.7-1c4.1-0.9,7.1-2.1,9.4-3.9
		C37,22,35,21.1,32.8,20.4c-0.2,0.2-0.5,0.6-0.8,1c-0.4,0.4-0.8,0.4-1.2,0L30.3,21c-0.4-0.4-0.5-0.7-0.2-1.1c1.4-1.8,2.7-4,3.9-6.3
		h-5.3C28.1,13.6,27.8,13.3,27.8,12.7z M38.7,1.8h0.9c0.5,0,0.9,0.3,0.9,0.9V5H49c0.5,0,0.9,0.3,0.9,0.9v3.5c0,0.5-0.3,0.9-0.9,0.9
		h-0.8c-0.5,0-0.9-0.3-0.9-0.9V6.4H31v2.9c0,0.5-0.3,0.9-0.9,0.9h-0.8c-0.5,0-0.9-0.3-0.9-0.9V5.8c0-0.5,0.3-0.9,0.9-0.9h8.5V2.7
		C37.8,2.1,38.2,1.8,38.7,1.8z M33.7,18.9c2.3,0.8,4.5,1.7,6.4,2.7c1.6-1.8,3-4.5,3.9-8.1h-7.3C36.1,14.9,35.1,16.7,33.7,18.9z"/>
	<path fill="#FFFFFF" d="M61.2,12.8l2.3,2.3c0.6,0.6,0.6,1.2,0,1.8l-1.8,1.8c-0.6,0.6-1.2,0.6-1.8,0l-2.3-2.3
		c-0.6-0.6-0.6-1.2,0-1.8l1.8-1.8C60,12.2,60.6,12.2,61.2,12.8z"/>
	<path fill="#FFFFFF" d="M77.8,16.5c2.4-1,4.6-2.2,6.8-3.8c-1.5-1.4-2.7-2.8-3.6-4c-0.5,0.8-1.2,1.6-1.9,2.3c-0.4,0.5-0.9,0.4-1.2,0
		l-0.3-0.3c-0.3-0.4-0.3-0.8,0-1.2C77.8,9.3,78,9,78.3,8.7c1.4-1.7,2.6-3.8,3.7-6.2C82.1,2,82.5,1.8,83,2l0.6,0.2
		c0.6,0.2,0.8,0.5,0.5,1.1c-0.2,0.4-0.4,0.9-0.6,1.4h8.4c0.5,0,0.9,0.3,0.9,0.9v0.1c0,0.4-0.1,0.7-0.3,1c-1.2,2.1-2.8,4.2-4.9,6.1
		c1.9,1.5,3.8,2.7,5.9,3.7c0.5,0.2,0.7,0.5,0.5,1.1l0,0.1c-0.1,0.6-0.5,0.8-1,0.6c-0.3-0.1-0.7-0.3-1.1-0.5
		c-2.3-1.1-4.2-2.4-5.8-3.7c-1.7,1.3-3.9,2.6-6.4,3.7c-0.8,0.3-1.2,0.5-1.4,0.6l0.1,0.6c0.1,0.5-0.1,0.9-0.5,1.1l-0.3,0.2
		c-0.5,0.3-0.9,0.1-1.1-0.5c-0.2-0.7-0.4-1.7-0.7-3v11.7c0,0.5-0.3,0.9-0.9,0.9h-0.5c-0.5,0-0.9-0.3-0.9-0.9V17.1
		C73,19,72.4,20.5,71.7,22c-0.3,0.6-0.8,0.6-1.2,0l-0.5-0.9c-0.2-0.4-0.2-0.8,0-1.2c1.5-3.3,2.6-6.9,3.3-10.8h-2.3
		c-0.5,0-0.9-0.3-0.9-0.9c0-0.5,0.3-0.8,0.9-0.8h2.3V3.2c0-0.5,0.3-0.9,0.9-0.9h0.6c0.5,0,0.9,0.3,0.9,0.9v4.4h1.1
		c0.5,0,0.9,0.3,0.9,0.9c0,0.5-0.3,0.8-0.9,0.8h-1.2C76.8,12.7,77.4,15.2,77.8,16.5z M80.7,28.9h-0.9c-0.5,0-0.9-0.3-0.9-0.9v-8.9
		c0-0.5,0.3-0.9,0.9-0.9l11.7-0.2c0.5,0,0.9,0.3,0.9,0.9l0.1,9.1c0,0.5-0.3,0.9-0.9,0.9h-0.9c-0.5,0-0.9-0.3-0.9-0.9v-0.8h-8.3v0.8
		C81.6,28.6,81.2,28.9,80.7,28.9z M89.8,25.8v-6.1h-8.3v6.1H89.8z M82.3,6.8c1.3,2,2.6,3.5,3.8,4.7c1.5-1.4,2.9-3.1,4.1-5.3h-7.5
		C82.7,6.2,82.5,6.4,82.3,6.8z"/>
	<path fill="#FFFFFF" d="M95.9,12.7L95.9,12.7c0-0.6,0.3-0.9,0.9-0.9h6.1c0.4-0.9,0.8-2.1,1.3-3.7c0.2-0.5,0.5-0.8,1-0.7l1,0.2
		c0.6,0.1,0.8,0.5,0.7,1c-0.3,1.1-0.7,2.1-1.1,3.2h12c0.5,0,0.9,0.3,0.9,0.9v0.1c0,0.5-0.3,0.9-0.9,0.9h-3c-0.9,3.6-2.3,6.5-4.3,8.8
		c2.1,1.2,4.5,2.6,7,4.4c0.5,0.3,0.5,0.7,0.2,1.2l-0.3,0.5c-0.3,0.5-0.7,0.6-1.2,0.2c-3-2.3-5.5-3.8-7.3-4.9
		c-2.4,2.1-6.2,3.7-11.1,4.7c-0.5,0.1-0.9-0.1-1-0.7l-0.1-0.2c-0.1-0.5,0.1-0.9,0.7-1c4.1-0.9,7.1-2.1,9.4-3.9
		c-1.6-0.8-3.6-1.6-5.8-2.4c-0.2,0.2-0.5,0.6-0.8,1c-0.4,0.4-0.8,0.4-1.2,0L98.3,21c-0.4-0.4-0.5-0.7-0.2-1.1c1.4-1.8,2.7-4,3.9-6.3
		h-5.3C96.2,13.6,95.9,13.3,95.9,12.7z M106.7,1.8h0.9c0.5,0,0.9,0.3,0.9,0.9V5h8.5c0.5,0,0.9,0.3,0.9,0.9v3.5
		c0,0.5-0.3,0.9-0.9,0.9h-0.8c-0.5,0-0.9-0.3-0.9-0.9V6.4H99v2.9c0,0.5-0.3,0.9-0.9,0.9h-0.8c-0.5,0-0.9-0.3-0.9-0.9V5.8
		c0-0.5,0.3-0.9,0.9-0.9h8.5V2.7C105.9,2.1,106.2,1.8,106.7,1.8z M101.7,18.9c2.3,0.8,4.5,1.7,6.4,2.7c1.6-1.8,3-4.5,3.9-8.1h-7.3
		C104.2,14.9,103.1,16.7,101.7,18.9z"/>
	<path fill="#FFFFFF" d="M129.2,12.8l2.3,2.3c0.6,0.6,0.6,1.2,0,1.8l-1.8,1.8c-0.6,0.6-1.2,0.6-1.8,0l-2.3-2.3
		c-0.6-0.6-0.6-1.2,0-1.8l1.8-1.8C128,12.2,128.6,12.2,129.2,12.8z"/>
	<path fill="#FFFFFF" d="M146.2,14.9c0.6-0.2,1,0,1,0.6v0c0,0.5-0.2,0.8-0.7,1c-1.1,0.4-1.6,0.6-2.1,0.8v10.9c0,0.5-0.3,0.9-0.9,0.9
		h-0.9c-0.5,0-0.9-0.3-0.9-0.9V18.2c-0.7,0.2-1.7,0.5-3.1,0.9c-0.6,0.1-0.9-0.1-1-0.7c-0.1-0.5,0.2-0.8,0.7-0.9
		c0.8-0.2,1.9-0.5,3.4-1V8.6H141c-0.2,1.8-0.5,3.6-1,5.4c-0.1,0.5-0.5,0.8-1,0.6l-0.5-0.2c-0.5-0.2-0.7-0.5-0.6-1
		c0.6-2.7,1.1-5.7,1.4-9.1c0-0.5,0.4-0.8,0.9-0.8l0.5,0.1c0.5,0,0.9,0.4,0.8,0.9c-0.1,0.8-0.2,1.6-0.2,2.5h0.7V3.2
		c0-0.5,0.3-0.9,0.9-0.9h0.9c0.5,0,0.9,0.3,0.9,0.9V7h2c0.5,0,0.9,0.3,0.9,0.9c0,0.5-0.3,0.8-0.9,0.8h-2v7
		C145.2,15.4,145.7,15.1,146.2,14.9z M161.7,11.8c0,0.5-0.3,0.8-0.9,0.8h-1.6v4.3h1.6c0.5,0,0.9,0.3,0.9,0.9c0,0.5-0.3,0.7-0.9,0.7
		h-1.6V25c0,3.4-0.3,3.9-3.3,3.9c-0.4,0-1.3,0-2.3-0.2c-0.5-0.1-0.8-0.4-0.8-0.9c0-0.5,0.3-0.8,0.9-0.7c0.9,0.1,1.6,0.1,1.9,0.1
		c1,0,1,0,1-2.2v-6.5h-8.4c-0.5,0-0.9-0.3-0.9-0.9c0-0.5,0.3-0.7,0.9-0.7h8.4v-4.3h-9.2c-0.5,0-0.9-0.3-0.9-0.9
		c0-0.5,0.3-0.8,0.9-0.8h5.3V6.5h-4.4c-0.5,0-0.9-0.3-0.9-0.9c0-0.5,0.3-0.7,0.9-0.7h4.4V2.5c0-0.5,0.3-0.9,0.9-0.9h0.9
		c0.5,0,0.9,0.3,0.9,0.9V5h4.6c0.5,0,0.9,0.3,0.9,0.9c0,0.5-0.3,0.7-0.9,0.7h-4.6V11h5.5C161.4,11,161.7,11.3,161.7,11.8z
		 M151.3,25.1c-1-1.4-2-2.6-2.9-3.6c-0.4-0.4-0.4-0.8,0-1.2l0.2-0.3c0.4-0.5,0.8-0.5,1.2,0c1.3,1.3,2.3,2.6,3.2,3.8
		c0.3,0.4,0.3,0.8-0.1,1.2l-0.3,0.4C152.2,25.8,151.7,25.7,151.3,25.1z"/>
	<path fill="#FFFFFF" d="M163,15.7c1.9-3.4,3.4-7.7,4.3-12.8c0.1-0.5,0.4-0.8,1-0.7l0.7,0.1c0.5,0.1,0.8,0.4,0.7,1
		c-0.2,1.2-0.8,3.8-1.8,6.6v18.3c0,0.5-0.3,0.9-0.9,0.9h-0.6c-0.5,0-0.9-0.3-0.9-0.9V15.4c-0.4,0.9-0.7,1.5-1,2.2
		c-0.3,0.6-0.9,0.6-1.2-0.1l-0.3-0.8C162.8,16.4,162.8,16.1,163,15.7z M183.8,28v-0.6h-11.3V28c0,0.5-0.3,0.9-0.9,0.9h-0.8
		c-0.5,0-0.9-0.3-0.9-0.9V11.2c0-0.5,0.3-0.9,0.9-0.9h3.8V5h-3.9c-0.5,0-0.9-0.3-0.9-0.9c0-0.5,0.3-0.8,0.9-0.8h15.1
		c0.5,0,0.9,0.3,0.9,0.9S186.3,5,185.8,5h-4.1v5.3h3.9c0.5,0,0.9,0.3,0.9,0.9V28c0,0.5-0.3,0.9-0.9,0.9h-0.9
		C184.1,28.8,183.8,28.5,183.8,28z M174.7,25.9v-14h-2.3v14H174.7z M177.1,5v5.3h2V5H177.1z M179.1,25.9v-14h-1.9v14H179.1z
		 M181.5,25.9h2.3v-14h-2.3V25.9z"/>
	<path fill="#FFFFFF" d="M190.9,9.6c-0.1,2.8-0.2,5.6-0.5,8.5c-0.1,0.6-0.4,0.8-0.9,0.7l-0.3-0.1c-0.5-0.1-0.8-0.4-0.7-0.9
		c0.3-2.7,0.5-5.4,0.5-8.2c0-0.5,0.3-0.9,0.9-0.8h0.3C190.6,8.7,190.9,9,190.9,9.6z M193.5,3.2v25.1c0,0.5-0.3,0.9-0.9,0.9h-0.5
		c-0.5,0-0.9-0.3-0.9-0.9V3.2c0-0.5,0.3-0.9,0.9-0.9h0.5C193.2,2.3,193.5,2.6,193.5,3.2z M210.8,8.6c0,0.5-0.3,0.7-0.9,0.7h-4.8v2.4
		h6.1c0.5,0,0.9,0.3,0.9,0.9c0,0.4-0.3,0.5-0.9,0.5h-14.8c0,0,0,0.1,0,0.2c0.1,0.5-0.1,0.9-0.6,1l-0.2,0.1c-0.5,0.2-0.9-0.1-1-0.7
		c-0.2-1.6-0.4-3.2-0.7-4.7c-0.1-0.5,0.1-0.9,0.6-1l0.2-0.1c0.5-0.2,0.9,0,1,0.6c0.2,0.9,0.3,1.9,0.5,3.1h6.2V9.3h-5
		c-0.5,0-0.9-0.3-0.9-0.9c0-0.3,0.3-0.5,0.9-0.5h5V5.5h-5.8c-0.5,0-0.9-0.3-0.9-0.9c0-0.4,0.3-0.6,0.9-0.6h5.8V2.7
		c0-0.5,0.3-0.9,0.9-0.9h0.9c0.5,0,0.9,0.3,0.9,0.9V4h5.6c0.5,0,0.9,0.3,0.9,0.9c0,0.4-0.3,0.6-0.9,0.6h-5.6v2.4h4.8
		C210.5,7.9,210.8,8.2,210.8,8.6z M198.2,28.9h-0.9c-0.5,0-0.9-0.3-0.9-0.9v-12c0-0.5,0.3-0.9,0.9-0.9H210c0.5,0,0.9,0.3,0.9,0.9v10
		c0,2.4-0.3,2.7-3.2,2.7c-0.5,0-1.3,0-2.2-0.1c-0.5,0-0.8-0.3-0.9-0.9c0-0.5,0.3-0.8,0.9-0.7c0.7,0.1,1.4,0.1,1.9,0.1
		c1.1,0,0.9,0,0.9-1.1v-1.7h-9.2v3.7C199.1,28.6,198.8,28.9,198.2,28.9z M199.1,19.2h9.2v-2.6h-9.2V19.2z M199.1,20.5v2.5h9.2v-2.5
		H199.1z"/>
	<path fill="#FFFFFF" d="M223.3,17.2h2c0.5,0,0.9,0.3,0.9,0.9c0,0.5-0.3,0.7-0.9,0.7h-3.8v4.1h3.3c0.5,0,0.9,0.3,0.9,0.9
		c0,0.4-0.3,0.6-0.9,0.6h-3.3v4.1c0,0.5-0.3,0.9-0.9,0.9h-0.8c-0.5,0-0.9-0.3-0.9-0.9v-4.1h-3.4c-0.5,0-0.9-0.2-0.9-0.7
		c0-0.5,0.3-0.7,0.9-0.7h3.4v-4.1h-3.8c-0.5,0-0.9-0.3-0.9-0.9c0-0.5,0.3-0.7,0.9-0.7h2c-0.4-2.5-0.7-4.7-1.1-6.3h-1
		c-0.5,0-0.9-0.3-0.9-0.9c0-0.5,0.3-0.7,0.9-0.7h3.9V5.6h-3.2c-0.5,0-0.9-0.3-0.9-0.9c0-0.4,0.3-0.6,0.9-0.6h3.2V2.7
		c0-0.5,0.3-0.9,0.9-0.9h0.8c0.5,0,0.9,0.3,0.9,0.9v1.4h3.1c0.5,0,0.9,0.3,0.9,0.9c0,0.4-0.3,0.6-0.9,0.6h-3.1v3.7h3.8
		c0.5,0,0.9,0.3,0.9,0.9c0,0.5-0.3,0.7-0.9,0.7h-0.5C224.4,12.9,223.9,15,223.3,17.2z M222.3,10.9h-4c0.5,2.1,0.8,4.2,1.2,6.3h1.4
		C221.7,14.5,222,13.1,222.3,10.9z M234.4,23.1c1,1.6,2.1,2.9,3,3.8c0.3,0.3,0.5,0.7,0.3,1.1l-0.1,0.3c-0.2,0.6-0.7,0.7-1.2,0.3
		c-1.3-1.1-2.3-2.3-3.2-3.5c-0.7,1-1.5,2.1-2.3,2.9c-0.4,0.5-0.9,0.3-1.2-0.2l-0.2-0.4c-0.2-0.4-0.2-0.8,0.2-1.2
		c0.5-0.6,1.3-1.8,2.2-3.2c-1.3-2.2-2.1-4.4-2.6-6.3c-0.1-0.5,0-0.8,0.5-1.1l0.6-0.4c0.5-0.3,1-0.2,1.1,0.5c0.5,1.9,0.9,3.2,1.7,4.8
		c0.9-2.2,1.6-4.7,1.9-7.5h-6v15c0,0.5-0.3,0.9-0.9,0.9h-0.6c-0.5,0-0.9-0.3-0.9-0.9V3.9c0-0.5,0.3-0.9,0.9-0.9h9.2
		c0.5,0,0.8,0.2,0.9,0.7c-0.1,1.8-0.2,3-0.3,3.9c-0.2,1.3-0.6,1.7-1.9,1.7c-0.7,0-2-0.1-4-0.1c-0.5,0-0.9-0.3-0.9-0.9
		c0-0.4,0.3-0.6,0.9-0.6c1.4,0.1,2.1,0,2.7,0c0.6,0,0.7-0.4,0.9-1.3c0-0.3,0.1-0.9,0.2-2h-6.1v7h7.6c0.5,0,0.9,0.3,0.9,0.9v0.9
		C236.9,16.7,236,19.8,234.4,23.1z"/>
	<path fill="#FFFFFF" d="M244.1,5.7c0.5,1,0.8,2,1.2,3.1c0.4,1.2,0.9,2.5,1.3,3.8c0.2,0.5,0,0.9-0.5,1l-1.3,0.4
		c-0.5,0.1-0.9-0.1-1-0.6c-0.4-2.5-0.8-4.9-1.4-7c-0.2-0.5,0-0.9,0.5-1l0.1-0.1C243.4,5.1,243.8,5.3,244.1,5.7z M261.6,7.1
		c-2.9,9-7.2,15.9-15.6,20.5c-0.5,0.3-0.9,0.2-1.1-0.2c-0.2-0.5-0.1-0.8,0.3-1.1C252.6,21,255.8,15,258.4,6c0.2-0.5,0.5-0.7,1-0.5
		l1.6,0.5C261.6,6.1,261.7,6.5,261.6,7.1z M249.7,3.9c1.2,2.3,2.2,4.5,3.1,7c0.2,0.5,0,0.9-0.5,1.1l-1.3,0.4c-0.5,0.2-0.9,0-1-0.6
		c-0.5-2.6-1.1-4.7-2-7.1c-0.2-0.5,0-0.9,0.4-1.1l0.2-0.1C249.1,3.3,249.5,3.4,249.7,3.9z"/>
	<path fill="#FFFFFF" d="M286,8.8c-1.7,9.5-4.9,16-12.8,19.2c-0.5,0.2-0.8,0-1-0.4v0c-0.2-0.4-0.1-0.8,0.4-1
		c6.3-3.3,8.7-9.2,10.1-17.4h-12v7.2c0,0.5-0.3,0.8-0.8,0.8h-1c-0.5,0-0.8-0.3-0.8-0.8L268,8.6c0-0.5,0.3-0.8,0.8-0.8h6.7V3.1
		c0-0.5,0.3-0.8,0.8-0.8h1.1c0.5,0,0.8,0.3,0.8,0.8v4.8h7.3C285.9,7.8,286.1,8.2,286,8.8z"/>
	<path fill="#FFFFFF" d="M298.2,20.3h-0.9c-0.5,0-0.9-0.3-0.9-0.9l-0.2-13.9c0-0.5,0.3-0.9,0.9-0.9h1.3c0.5,0,0.9,0.3,0.9,0.9
		l-0.2,13.9C299.1,20,298.8,20.3,298.2,20.3z M299.2,24v1.6c0,0.5-0.3,0.9-0.9,0.9h-1.2c-0.5,0-0.9-0.3-0.9-0.9V24
		c0-0.5,0.3-0.9,0.9-0.9h1.2C298.9,23.2,299.2,23.5,299.2,24z"/>
</g>
</svg>
